# xmcd
#
# Track frame offsets:
#	150
#	16934
#	37337
#	49868
#	66972
#
# Disc length: 1091 seconds
#
# Revision: 0
# Processed by: cddbd v1.5.1PL2 Copyright (c) Steve Scherf et al.
# Submitted via: dBpowerAMP V4.0
#
DISCID=42044105
DTITLE=She Said - Black Leather EP
DYEAR=1900
DGENRE=Country
TTITLE0=Empty House
TTITLE1=Black Leather
TTITLE2=Texas Chainstore Manicure
TTITLE3=Devil in the Man
TTITLE4=Dreamt that you died
EXTD=
EXTT0=
EXTT1=
EXTT2=
EXTT3=
EXTT4=
PLAYORDER=
